<?xml version="1.0" standalone="no"?>
<!DOCTYPE svg PUBLIC "-//W3C//DTD SVG 20010904//EN"
 "http://www.w3.org/TR/2001/REC-SVG-20010904/DTD/svg10.dtd">
<svg version="1.0" xmlns="http://www.w3.org/2000/svg"
 width="500.000000pt" height="500.000000pt" viewBox="0 0 500.000000 500.000000"
 preserveAspectRatio="xMidYMid meet">

<g transform="translate(0.000000,500.000000) scale(0.100000,-0.100000)"
fill="#000000" stroke="none">
<path d="M3650 3615 c0 -34 -1 -35 -40 -35 l-40 0 0 -75 0 -75 -40 0 -40 0 0
-75 0 -75 -40 0 -40 0 0 -40 0 -40 -40 0 -40 0 0 -65 0 -65 -40 0 -40 0 0 -40
0 -40 -40 0 c-39 0 -40 -1 -40 -35 l0 -35 -79 0 -80 0 -3 -37 -3 -38 -77 -3
-78 -3 0 -40 0 -39 -212 2 -213 3 -3 38 c-3 36 -4 37 -43 37 -39 0 -39 0 -39
40 l0 40 -40 0 -40 0 0 40 0 40 -75 0 -75 0 0 35 0 35 -270 0 -270 0 0 -35 c0
-35 0 -35 -45 -35 l-45 0 0 -40 0 -40 -69 0 -70 0 -3 -37 c-3 -37 -4 -38 -45
-41 -43 -3 -43 -3 -43 -43 0 -39 0 -39 -40 -39 l-40 0 0 -45 c0 -45 0 -45 -35
-45 -34 0 -35 -1 -35 -40 l0 -40 -85 0 -85 0 0 -40 0 -40 -75 0 -75 0 0 -45 0
-45 -75 0 -75 0 0 -40 0 -40 -45 0 -45 0 0 -40 0 -40 -75 0 -75 0 0 -40 0 -40
-45 0 -45 0 0 -125 0 -125 44 0 45 0 3 -42 3 -43 70 0 70 0 3 -42 3 -43 120 0
119 0 0 -40 0 -39 158 -3 157 -3 3 -42 3 -43 1030 0 1029 0 0 -35 0 -35 120 0
120 0 0 -45 0 -45 430 0 430 0 0 80 0 80 -45 0 -45 0 0 40 0 40 -40 0 -40 0 0
50 0 50 165 0 165 0 0 40 0 40 80 0 80 0 0 40 c0 39 1 40 38 42 20 1 54 1 75
0 20 -1 37 1 36 5 -1 5 -1 25 0 46 1 36 2 37 41 37 l40 0 0 115 0 115 -40 0
c-40 0 -40 0 -40 39 l0 39 -75 7 -75 7 0 39 0 39 -79 0 -80 0 -3 43 -3 42
-127 3 -128 3 0 124 0 125 -35 0 c-34 0 -35 1 -35 40 l0 40 -40 0 -40 0 0 115
0 115 35 0 34 0 3 103 3 102 38 3 37 3 0 75 0 74 40 0 40 0 0 110 0 110 -295
0 -295 0 0 -35z m500 -80 l0 -35 -173 0 -173 0 4 -40 c4 -39 3 -40 -27 -40
-29 0 -31 -3 -31 -35 0 -29 -4 -35 -22 -35 -17 0 -19 -3 -10 -12 7 -7 12 -23
12 -36 0 -22 -3 -24 -40 -20 l-40 4 0 -39 c0 -32 -3 -38 -17 -33 -20 8 -33
-10 -33 -46 0 -16 -4 -28 -9 -28 -6 0 -11 -17 -13 -37 -3 -33 -7 -38 -30 -41
-25 -3 -28 -8 -28 -38 0 -24 -5 -34 -15 -34 -10 0 -15 -11 -15 -35 l0 -35 -80
0 -80 0 0 35 c0 34 1 35 40 35 l40 0 0 70 0 70 40 0 40 0 0 70 0 70 45 0 45 0
0 40 c0 39 1 40 35 40 l34 0 3 73 3 72 38 3 c35 3 37 5 37 38 l0 34 210 0 210
0 0 -35z m-150 -237 c1 -29 3 -79 6 -110 l6 -58 -46 0 -46 0 0 -105 0 -105
-170 0 -170 0 0 70 0 70 40 0 40 0 0 70 c0 62 2 70 19 70 36 0 51 12 51 40 0
29 18 40 68 40 19 0 22 5 22 35 l0 35 90 0 90 0 0 -52z m-1972 -340 l-3 -33
-153 -3 c-152 -2 -153 -3 -152 -25 5 -53 2 -57 -40 -57 l-40 0 0 -40 c0 -40 0
-40 -40 -40 l-40 0 7 -45 6 -45 -47 0 -46 0 0 -40 0 -40 -115 0 -115 0 0 40 0
40 40 0 40 0 0 45 0 45 40 0 40 0 0 40 0 40 40 0 c39 0 40 1 40 34 0 36 12 46
56 46 21 0 24 5 24 35 l0 35 231 0 230 0 -3 -32z m162 -78 c0 -27 4 -40 13
-39 6 1 24 1 40 0 25 -1 27 -4 27 -41 0 -40 0 -40 38 -40 l37 0 -3 -44 -4 -45
39 -3 c36 -3 38 -5 37 -35 -1 -32 0 -33 43 -33 42 0 43 0 43 34 l0 35 289 1
290 1 3 -38 c3 -38 4 -38 46 -38 l42 0 0 -42 0 -43 311 0 311 0 -4 -45 -3 -45
37 0 38 0 0 -115 0 -115 -69 0 c-74 0 -104 -7 -95 -21 3 -5 0 -9 -5 -9 -6 0
-11 -5 -11 -11 0 -5 4 -8 9 -5 5 3 11 -5 13 -19 l5 -25 -518 0 -519 0 0 -35
c0 -34 -1 -35 -39 -35 l-39 0 -7 -102 c-4 -57 -5 -116 -3 -133 l3 -30 118 -3
117 -3 0 -39 0 -40 -355 0 -355 0 0 45 0 45 -425 0 -425 0 0 285 0 285 -45 0
-45 0 0 40 0 40 -80 0 -80 0 0 45 0 45 510 0 510 0 0 40 0 40 40 0 40 0 0 124
0 125 -42 3 c-42 3 -43 4 -46 41 l-3 37 85 0 86 0 0 -40z m1740 -75 l0 -35
-350 0 -350 1 0 34 0 35 350 0 350 0 0 -35z m402 -507 l3 -43 78 0 77 0 0 -40
0 -40 85 3 85 4 0 -41 0 -41 -80 0 -80 0 0 -40 0 -40 -75 0 -75 0 0 -45 0 -45
-90 0 -90 0 0 205 0 205 79 0 80 0 3 -42z m-692 -328 c0 -39 1 -40 35 -40 34
0 35 -1 35 -40 l0 -40 80 0 80 0 0 -40 c0 -39 1 -40 35 -40 35 0 35 0 35 -45
l0 -45 40 0 40 0 0 -45 0 -45 -237 -2 -238 -3 235 -2 c171 -3 236 -7 243 -16
6 -8 7 -6 3 6 -4 14 1 17 29 17 33 0 35 -2 35 -35 l0 -35 -305 0 -305 0 0 40
0 40 -120 0 -120 0 0 46 0 45 -65 -3 c-50 -2 -68 1 -75 12 -15 23 -12 40 8 41
16 1 16 2 -1 6 -12 3 -15 11 -11 29 4 14 2 24 -5 24 -6 0 -8 -7 -5 -15 5 -13
-7 -15 -79 -15 l-85 0 -4 34 c-3 31 -2 33 18 26 18 -7 21 -5 20 15 -1 13 -6
28 -10 32 -5 4 -6 3 -3 -3 9 -16 -25 -24 -110 -24 l-73 0 0 80 0 80 440 0 440
0 0 -40z"/>
<path d="M3506 3252 c-3 -5 1 -9 9 -9 8 0 12 4 9 9 -3 4 -7 8 -9 8 -2 0 -6 -4
-9 -8z"/>
<path d="M3548 3253 c7 -3 16 -2 19 1 4 3 -2 6 -13 5 -11 0 -14 -3 -6 -6z"/>
<path d="M3430 3110 c0 -5 5 -10 11 -10 5 0 7 5 4 10 -3 6 -8 10 -11 10 -2 0
-4 -4 -4 -10z"/>
<path d="M3043 2503 c9 -2 23 -2 30 0 6 3 -1 5 -18 5 -16 0 -22 -2 -12 -5z"/>
<path d="M3331 2147 c-1 -35 0 -37 15 -23 15 16 60 23 51 9 -3 -5 23 -7 56 -5
39 2 57 -1 49 -6 -9 -6 -3 -9 20 -9 27 -1 29 1 13 7 -15 7 -9 9 25 11 38 2 40
3 13 6 -32 4 -47 22 -20 24 6 1 1 5 -13 9 -14 4 -61 8 -105 7 l-80 -1 85 -6
c47 -3 68 -7 47 -8 -23 -1 -36 -6 -32 -12 4 -6 -6 -10 -22 -9 -25 0 -26 1 -8
9 26 11 11 11 -42 1 -38 -7 -42 -6 -46 13 -2 12 -5 4 -6 -17z m186 -3 c-3 -3
-12 -4 -19 -1 -8 3 -5 6 6 6 11 1 17 -2 13 -5z"/>
<path d="M3600 2160 c0 -5 5 -10 10 -10 6 0 10 5 10 10 0 6 -4 10 -10 10 -5 0
-10 -4 -10 -10z"/>
<path d="M3640 2152 c0 -12 19 -26 26 -19 2 2 -2 10 -11 17 -9 8 -15 8 -15 2z"/>
<path d="M2191 1984 c0 -11 3 -14 6 -6 3 7 2 16 -1 19 -3 4 -6 -2 -5 -13z"/>
<path d="M2263 1905 c0 -27 2 -38 4 -22 2 15 2 37 0 50 -2 12 -4 0 -4 -28z"/>
<path d="M2112 1808 c3 -42 4 -43 41 -46 l37 -3 0 45 0 46 -41 0 -40 0 3 -42z"/>
<path d="M2808 1993 c12 -2 32 -2 45 0 12 2 2 4 -23 4 -25 0 -35 -2 -22 -4z"/>
<path d="M3011 1964 c0 -11 3 -14 6 -6 3 7 2 16 -1 19 -3 4 -6 -2 -5 -13z"/>
<path d="M2780 1950 c0 -5 5 -10 11 -10 5 0 7 5 4 10 -3 6 -8 10 -11 10 -2 0
-4 -4 -4 -10z"/>
<path d="M3145 1895 c0 -19 3 -35 8 -35 4 0 7 16 7 35 0 19 -3 35 -7 35 -5 0
-8 -16 -8 -35z"/>
<path d="M2835 1900 c-3 -5 -1 -10 4 -10 6 0 11 5 11 10 0 6 -2 10 -4 10 -3 0
-8 -4 -11 -10z"/>
<path d="M2895 1880 c-3 -6 1 -7 9 -4 18 7 21 14 7 14 -6 0 -13 -4 -16 -10z"/>
<path d="M3184 1843 c11 -11 46 -14 46 -3 0 6 -12 10 -27 10 -14 0 -23 -3 -19
-7z"/>
<path d="M3241 1765 c3 -2 37 -5 77 -6 l73 -2 -3 -38 c-2 -49 7 -57 57 -48
l40 7 -42 -2 -43 -2 0 48 0 48 -82 0 c-45 0 -79 -2 -77 -5z"/>
<path d="M3150 1750 c0 -5 5 -10 10 -10 6 0 10 5 10 10 0 6 -4 10 -10 10 -5 0
-10 -4 -10 -10z"/>
<path d="M3228 1727 c-13 -16 -16 -17 -12 -4 3 9 1 17 -4 17 -19 0 -22 -17 -7
-30 17 -14 50 -6 40 10 -3 5 -1 10 4 10 6 0 11 5 11 10 0 16 -14 11 -32 -13z"/>
<path d="M3120 1705 c0 -8 2 -15 4 -15 2 0 6 7 10 15 3 8 1 15 -4 15 -6 0 -10
-7 -10 -15z"/>
<path d="M3150 1710 c0 -5 7 -10 16 -10 8 0 12 5 9 10 -3 6 -10 10 -16 10 -5
0 -9 -4 -9 -10z"/>
<path d="M3262 1659 c-8 -12 -9 -18 -3 -14 6 3 11 1 11 -4 0 -6 8 -11 18 -11
16 1 16 1 0 11 -10 5 -15 16 -12 24 9 22 1 18 -14 -6z"/>
<path d="M3365 1650 c-3 -6 1 -7 9 -4 18 7 21 14 7 14 -6 0 -13 -4 -16 -10z"/>
<path d="M4056 1568 c3 -5 10 -6 15 -3 13 9 11 12 -6 12 -8 0 -12 -4 -9 -9z"/>
<path d="M3795 1560 c3 -5 11 -10 16 -10 6 0 7 5 4 10 -3 6 -11 10 -16 10 -6
0 -7 -4 -4 -10z"/>
<path d="M3591 1544 c0 -11 3 -14 6 -6 3 7 2 16 -1 19 -3 4 -6 -2 -5 -13z"/>
<path d="M3943 1543 c9 -2 25 -2 35 0 9 3 1 5 -18 5 -19 0 -27 -2 -17 -5z"/>
</g>
</svg>
